<svg xmlns="http://www.w3.org/2000/svg" width="177" height="20" fill="none" viewBox="0 0 177 20">
    <g clip-path="url(#a)">
        <path fill="#F3F3F3" d="M15.34 13.501l-3.855-7.239-4.696 8.936c.636-.326 1.616-.691 2.94-1.094 1.323-.401 3.016-.603 5.078-.603h.534zM8.164.004H12.4l10.69 19.982h-4.314l-1.565-2.94h-2.367c-1.222 0-2.431.1-3.627.301-1.102.18-2.192.425-3.265.735-.98.29-1.807.591-2.481.905-.675.315-1.088.572-1.241.773l-.115.226H-.007L9.462 2.455 8.162.004zM42.983 14.1c.23.403.483.719.764.945.28.227.573.397.878.51.305.114.604.19.897.227.293.038.554.057.783.057h1.374v4.147H45.96c-.51 0-1.012-.024-1.508-.075a5.15 5.15 0 0 1-1.47-.377 4.946 4.946 0 0 1-1.412-.924c-.46-.415-.917-.986-1.375-1.716l-3.054-4.9h-.268c-.763 0-1.406.018-1.928.056-.522.037-.98.107-1.374.207-.395.1-.764.22-1.107.358-.344.139-.72.308-1.127.51v6.861H27.33V.456h12.753c.916 0 1.75.145 2.5.435.75.29 1.406.7 1.967 1.228.56.53.992 1.153 1.298 1.871.305.718.458 1.506.458 2.362 0 1.512-.395 2.735-1.184 3.667-.79.932-1.91 1.612-3.36 2.04l1.22 2.041zm-2.901-5.99c.585 0 1.1-.157 1.546-.471.445-.314.668-.786.668-1.414 0-.427-.09-.767-.267-1.018a1.707 1.707 0 0 0-.668-.566 2.908 2.908 0 0 0-.936-.245 9.809 9.809 0 0 0-1.03-.056h-8.057v4.9a8.003 8.003 0 0 1 2.54-.885c.99-.168 1.992-.25 2.996-.245h3.208zm19.395 11.876h-4.162V.456h4.162v12.517L68.6.456h5.04l-6.53 8.807 2.903 4.837c.585.807 1.158 1.298 1.718 1.474.56.177 1.094.265 1.604.265h1.374v4.147H72.99c-.51 0-.986-.031-1.432-.094a4.867 4.867 0 0 1-1.336-.396c-.446-.201-.91-.509-1.393-.924-.484-.414-1.02-.974-1.604-1.678l-2.75-4.448-5 7.54zm26.382-3.921h12.408v3.921H81.964V.456h15.578V4.34H85.859v4.75a7.42 7.42 0 0 1 2.882-.942c1.096-.128 2.2-.191 3.303-.189h2.902v3.883h-2.902c-.916 0-1.674.02-2.272.057-.598.038-1.114.094-1.546.17a5.407 5.407 0 0 0-1.184.339c-.356.15-.75.34-1.183.565v3.092zM108.537.456l11.95 13.573V.456h3.933v19.53h-3.932L109.492 7.28v12.706h-3.933V3.359L103.612.456h4.925zm28.94 15.609h12.409v3.921h-16.303V.456h15.577V4.34h-11.683v4.75a7.418 7.418 0 0 1 2.883-.942 28.018 28.018 0 0 1 3.302-.189h2.902v3.883h-2.902c-.916 0-1.674.02-2.271.057-.599.038-1.114.094-1.547.17a5.406 5.406 0 0 0-1.183.339c-.402.172-.797.36-1.184.565v3.092zm31.766-2.564l-3.857-7.239-4.696 8.936c.636-.326 1.616-.691 2.94-1.094 1.323-.401 3.016-.603 5.078-.603h.535zM162.065.004h4.238l10.69 19.982h-4.314l-1.566-2.94h-2.367c-1.221 0-2.43.1-3.627.301-1.102.18-2.192.425-3.264.735-.98.29-1.808.591-2.482.905-.675.315-1.088.572-1.24.773l-.115.226h-4.124l9.469-17.531-1.298-2.451z"/>
    </g>
    <defs>
        <clipPath id="a">
            <path fill="#fff" d="M0 0h177v20H0z"/>
        </clipPath>
    </defs>
</svg>
